<?xml version="1.0" encoding="UTF-8"?>
<svg width="82px" height="38px" viewBox="0 0 82 38" version="1.1" xmlns="http://www.w3.org/2000/svg" xmlns:xlink="http://www.w3.org/1999/xlink">
    <!-- Generator: Sketch 53.2 (72643) - https://sketchapp.com -->
    <title>DYD Logo - white</title>
    <desc>Created with Sketch.</desc>
    <g id="Page-1" stroke="none" stroke-width="1" fill="none" fill-rule="evenodd">
        <g id="Artboard" transform="translate(-638.000000, -417.000000)" fill="#363334" fill-rule="nonzero">
            <g id="DYD-Logo---white" transform="translate(638.000000, 417.000000)">
                <path d="M67.5090001,30.6165084 C66.7318481,30.5994351 65.9579317,30.5111631 65.1970693,30.3528123 C64.8412946,30.2662584 64.5084924,30.1043549 64.2213921,29.8781592 C63.7705436,29.4975922 63.5599584,28.905503 63.6699224,28.327626 C63.7312365,27.9557624 63.8606418,27.5982465 64.0517091,27.2728415 L64.1365506,27.1146238 L64.1365506,27.0407889 L63.5956861,27.5365376 C62.6518244,28.4120088 61.7185679,29.2874799 60.7534959,30.1418554 C60.1964604,30.6397354 59.5483908,31.0264748 58.8445622,31.2810226 C58.1687198,31.5362509 57.4438547,31.6371833 56.7235248,31.5763623 C55.6887341,31.5170529 54.7845185,30.8611221 54.411594,29.8992549 C54.3055421,29.6461066 54.2313058,29.3718627 54.1358591,29.1081665 L53.9979917,28.7073484 L53.3510753,29.3402191 C52.6963226,30.0771926 51.9873537,30.7646997 51.2300379,31.3970489 C50.3559582,32.0501261 49.3002873,32.4185341 48.2075595,32.4518335 C47.2673251,32.5058124 46.3859305,31.9947918 45.969865,31.1544485 C45.5094288,30.3238531 45.5094288,29.3164391 45.969865,28.4858437 C46.3955299,27.6595202 46.8774188,26.863064 47.4121705,26.1020307 C48.7908448,23.9924617 50.105888,21.8828926 51.3148794,19.7733236 C52.5091373,17.6784724 53.5716933,15.5120103 54.4964355,13.2863988 C54.6767237,12.8328415 54.8570119,12.3687363 55.0160897,11.9046311 C55.1167195,11.6204985 55.1599669,11.3194035 55.1433519,11.0186121 C55.1204193,10.5892049 54.891617,10.1968512 54.5282511,9.96382761 C54.2556438,9.78924492 53.9540075,9.66424272 53.6374153,9.59465303 L53.1707871,9.52081812 L53.2874442,9.4469832 C53.902545,9.21493061 54.5176459,8.96178232 55.1433519,8.74027757 C55.5010035,8.61290361 55.8704499,8.52104139 56.2462914,8.4660336 C56.9803293,8.35455861 57.7033045,8.72472875 58.038568,9.38369613 C58.2258417,9.7065197 58.3381691,10.0669068 58.3673288,10.4384806 C58.3961431,11.0132785 58.3389582,11.5891455 58.1976458,12.1472316 C57.9389834,13.4541772 57.4962754,14.7183055 56.8826026,15.9022644 C56.1826603,17.2734843 55.4402972,18.6341563 54.7085392,19.9842805 L52.2481358,24.4038276 L50.5831214,27.4521549 C50.430216,27.7110193 50.319269,27.9922264 50.2543606,28.2854346 C50.1652708,28.678688 50.3093282,29.0880551 50.6255422,29.3402191 C50.9200761,29.5871066 51.3260454,29.6557482 51.6860609,29.5195325 C51.884615,29.4621744 52.0640673,29.3528997 52.2057151,29.2030972 C52.8208159,28.5807743 53.4571272,27.9584514 54.0616228,27.3255807 C55.2216863,26.1532655 56.2855985,24.8905284 57.243179,23.5494522 C57.868885,22.6423375 58.5264066,21.7668663 59.2157438,20.9124909 C59.5564583,20.4161613 60.0522189,20.0454244 60.6262337,19.8577064 C61.0166117,19.7311746 61.4336492,19.7093439 61.835225,19.7944193 C62.2253128,19.8321146 62.5756531,20.0479245 62.7833727,20.3784789 C62.9910923,20.7090332 63.0326134,21.1168116 62.8957437,21.4820745 C62.7616353,21.9440373 62.5616377,22.3844945 62.3018532,22.7900073 L60.1808158,26.2602484 C59.852055,26.829832 59.512689,27.3994156 59.173323,27.9584514 C58.9447843,28.3648021 58.9447843,28.8600335 59.173323,29.2663842 C59.2372696,29.4067149 59.3566116,29.5145759 59.503164,29.5644937 C59.6497164,29.6144115 59.8104852,29.6019602 59.9475017,29.5300804 C60.1200896,29.4294468 60.2802549,29.3090873 60.4247351,29.1714536 L62.3972999,27.3677721 C62.800297,26.9985975 63.192689,26.6294229 63.5744757,26.2497005 C64.4190237,25.3924716 65.2088821,24.4835854 65.9394324,23.5283565 C66.6287696,22.6528853 67.275686,21.7457706 67.8907869,20.8175603 C68.1687942,20.4128625 68.4926058,20.041254 68.8558589,19.7100365 C69.0649952,19.4873585 69.2959144,19.2859551 69.5451961,19.1088093 C70.0801791,18.7593404 70.7377671,18.6484226 71.3586831,18.8029218 C71.732372,18.8794135 72.0530675,19.1160428 72.2350429,19.4495551 C72.4170183,19.7830675 72.4417199,20.179459 72.3025447,20.5327684 C72.1720662,20.8678981 72.0086619,21.1894066 71.8147061,21.4926224 C71.2738416,22.4313806 70.6481355,23.3279474 70.0436399,24.2245142 C69.1519393,25.5312961 68.4386909,26.9500799 67.9226024,28.4436523 C67.7871304,28.8486133 67.673842,29.2605843 67.5832364,29.6777502 C67.5724105,29.8357847 67.5724105,29.9943687 67.5832364,30.1524032 C67.5196053,30.3317166 67.5196053,30.4477429 67.5090001,30.6165084 Z" id="Path"></path>
                <path d="M22.0233524,26.6505186 C21.2321782,26.64216 20.4436914,26.557379 19.6690009,26.3973703 C19.2410018,26.2980379 18.8507676,26.078345 18.544851,25.7644996 C18.1267647,25.2938745 18.0080759,24.630369 18.2373006,24.0452009 C18.3207837,23.8069065 18.4199808,23.574349 18.5342459,23.3490431 C18.5722406,23.2755552 18.6007469,23.1975868 18.6190874,23.1169905 L18.2054851,23.4967129 C17.2298078,24.3932798 16.2647358,25.3109423 15.2678482,26.1969613 C14.637744,26.7707549 13.8881967,27.1993242 13.0725745,27.4521549 C12.3378243,27.6938416 11.5538341,27.7482429 10.7924592,27.6103725 C10.0232201,27.4516445 9.37011377,26.949877 9.02139298,26.2497005 C8.84587111,25.913885 8.70720488,25.560253 8.60779068,25.194916 C8.58599046,25.0704729 8.5576714,24.9472469 8.52294919,24.8257414 C8.25781951,25.0683419 7.98208464,25.3003944 7.72756015,25.5535427 C7.06212946,26.2926494 6.33093593,26.9704653 5.5428916,27.578729 C4.67769021,28.1706131 3.65527455,28.4936676 2.60525476,28.5069394 C1.76706946,28.5629618 0.965294208,28.1581699 0.516032887,27.4521549 C-0.0663312555,26.6103792 -0.127702573,25.5157378 0.35695508,24.6147845 C0.687130247,23.9390582 1.07009165,23.2901332 1.50231529,22.673981 C2.56283401,21.0496129 3.62335272,19.4146969 4.68387144,17.7270416 C5.36260342,16.5667787 6.00951983,15.3959679 6.64583106,14.2146092 C7.61915218,12.3511538 8.47970444,10.4315444 9.22289154,8.4660336 C9.36877169,8.13062637 9.46177621,7.77485083 9.49862641,7.41124909 C9.61661639,6.74525611 9.23638959,6.09124287 8.5971855,5.86071585 C8.38508175,5.76578524 8.15176764,5.71304602 7.92905871,5.62866326 L7.6851394,5.55482834 L7.75937571,5.49154127 L9.77436127,4.74264427 C10.0245567,4.648761 10.2840727,4.58158096 10.5485399,4.54223521 C11.1110615,4.40588749 11.7050746,4.55161849 12.139318,4.93250548 C12.3980493,5.16603774 12.59477,5.45952328 12.7119981,5.78688093 C12.8929158,6.33436639 12.9330227,6.91821241 12.8286552,7.485084 C12.5854849,9.088834 12.0803819,10.642268 11.3333238,12.0839445 C10.7606437,13.2020161 10.1667532,14.3095398 9.56225753,15.4065157 C8.95776186,16.5034916 8.19418839,17.9590942 7.46243047,19.1510007 L5.07626336,23.5389043 C4.90601147,23.816983 4.79081909,24.1248887 4.73689737,24.446019 C4.66947768,24.9458599 4.96723944,25.4232389 5.44744491,25.5851863 C5.90459339,25.7371543 6.4088243,25.604525 6.73067256,25.2476552 L8.62900106,23.3173996 C9.45975021,22.4788516 10.2388792,21.5912203 10.9621422,20.6593426 C11.460586,20.0053762 11.9166091,19.3092184 12.4150529,18.655252 C12.9134967,18.0012856 13.4755716,17.3156757 13.9846206,16.6722571 C14.4715018,16.1055479 15.1987208,15.8005945 15.9465802,15.8495252 C16.3288021,15.8359 16.703838,15.9552626 17.0070989,16.1870562 C17.3187103,16.4447042 17.4783018,16.8415257 17.4313064,17.2418408 C17.3737499,17.6441624 17.2290103,18.0292474 17.0070989,18.3704602 C16.6995485,18.9400438 16.3601825,19.5096275 16.0314217,20.0792111 C15.257243,21.3871439 14.4830644,22.7056245 13.6876753,24.0030095 C13.4407954,24.4111224 13.4207932,24.9164318 13.6346494,25.3425858 C13.6871428,25.5135758 13.8186971,25.6492805 13.9885881,25.7076907 C14.1584791,25.766101 14.3462112,25.7401701 14.4936696,25.6379255 C14.6808428,25.5192104 14.8550096,25.3813374 15.0133237,25.2265595 L16.78439,23.6232871 C17.5055427,22.948225 18.2160902,22.2520672 18.9054274,21.513718 C20.1420358,20.0801947 21.279404,18.5648554 22.3096925,16.9781446 C22.5430066,16.6511614 22.8187415,16.3558218 23.0838711,16.0499343 C23.3490008,15.7440467 23.3914216,15.7440467 23.5398942,15.5858291 C23.9519585,15.1160593 24.5367394,14.8309519 25.1624878,14.7947407 C25.4012047,14.7679769 25.6428981,14.789504 25.8730354,14.8580278 C26.2596494,14.9527897 26.5829601,15.215376 26.7535927,15.5731983 C26.9242253,15.9310206 26.9241053,16.346176 26.7532659,16.7039007 C26.5989751,17.0700065 26.414524,17.4228023 26.2017962,17.7586852 C25.6609316,18.6025128 25.1412775,19.4357925 24.5579922,20.2796202 C23.6057404,21.6455413 22.8490628,23.1365141 22.3096925,24.7097151 C22.2102581,24.9935751 22.1253083,25.2822509 22.055168,25.5746384 C22.018189,25.8085386 21.9969315,26.0446307 21.9915369,26.281344 C22.0127472,26.3973703 22.0233524,26.5133966 22.0233524,26.6505186 Z" id="Path"></path>
                <path d="M41.6535539,20.2796202 C41.3990294,20.5116728 41.1551101,20.7542732 40.8899804,20.9652301 C39.9991447,21.7035793 39.1507297,22.4841198 38.206868,23.148634 C37.4618354,23.7091542 36.5533764,24.0128053 35.6192024,24.0135573 C34.7025513,24.0166028 33.8095689,23.7242521 33.0739574,23.1802776 C32.3555277,22.6661359 32.0693696,21.7389947 32.3740151,20.9124909 C32.5808474,20.273998 32.9454929,19.6973464 33.4345338,19.2353835 C34.3110964,18.3271027 35.1126163,17.3500206 35.8313061,16.3136304 C36.6734315,15.1110561 37.4385213,13.8568929 38.1220265,12.5585975 C38.546234,11.7464134 38.9810467,10.9236815 39.3840438,10.1009496 C39.9991447,8.87739956 40.5081936,7.61165814 40.9960323,6.34591673 C41.1338997,5.97674215 41.2717671,5.61811541 41.3990294,5.29113221 C41.5244554,4.88045486 41.592262,4.45451819 41.6005279,4.0253908 C41.6005279,3.71950329 41.6005279,3.41361578 41.6005279,3.09718042 C41.6110199,2.9672996 41.6110199,2.83679098 41.6005279,2.70691015 C41.5739686,2.43414091 41.3792309,2.2067718 41.1126893,2.13732652 L40.6248507,2.00020453 C40.4785076,1.96603918 40.341139,1.90132167 40.2218536,1.81034332 C40.4752616,1.55382936 40.7689813,1.34007455 41.0914789,1.17747261 C41.9145036,0.780474505 42.8336842,0.623230271 43.7427757,0.723915267 C44.4457144,0.770406143 45.0598079,1.21311412 45.3229486,1.86308254 C45.533241,2.34766775 45.6101068,2.87917876 45.5456575,3.40306793 C45.4535755,4.12057076 45.2901626,4.82721988 45.0578189,5.51263696 C44.7665677,6.44941014 44.4122609,7.36562682 43.9973002,8.2550767 C43.5412772,9.2360263 43.0746489,10.206428 42.5868103,11.1768298 C41.8797978,12.5832092 41.1091542,13.9895885 40.2748795,15.3959679 C39.394649,16.8937619 38.4826029,18.3599123 37.5917672,19.8471585 C37.3584531,20.2479766 37.1463493,20.6487947 36.9448508,21.0496129 C36.8193922,21.284117 36.7984604,21.5601746 36.887139,21.8107404 C36.9758177,22.0613061 37.1659935,22.2634557 37.411479,22.3680935 C37.5637104,22.4637443 37.7576914,22.4637443 37.9099228,22.3680935 C38.0827354,22.2429007 38.2490943,22.1091249 38.4083666,21.9672754 C39.4688853,21.0812564 40.4445625,20.153046 41.3884242,19.1826443 C42.8667764,17.6638074 44.1949918,16.0072169 45.3547642,14.2357049 C45.6876927,13.7462597 46.0639036,13.2873638 46.478914,12.864485 C46.6167814,12.7062673 46.7546489,12.5585975 46.9031215,12.4109277 C47.3544315,11.9626619 47.973216,11.721838 48.6105566,11.7464134 C48.7745344,11.7477099 48.9379669,11.7653782 49.0983952,11.7991527 C49.4130904,11.8521406 49.6712583,12.0763066 49.766522,12.3792841 C49.8363704,12.5971858 49.8651338,12.8260488 49.8513635,13.0543462 C49.8411111,13.3760569 49.8092243,13.6967246 49.7559168,14.0142001 C49.7023264,14.2999878 49.5784513,14.5681406 49.3953405,14.7947407 C48.923122,15.4086967 48.4875597,16.0497025 48.0909025,16.7144485 C47.5801101,17.5423857 47.1162921,18.3980984 46.7016229,19.2775749 C46.4470984,19.8260628 46.2137843,20.3850986 45.9592598,20.9335866 C45.7700755,21.3819414 45.6279199,21.8485182 45.5350524,22.3259021 C45.5350524,22.5790504 45.4183953,22.8427465 45.3759745,23.0958948 C45.370383,23.1791319 45.3007727,23.2437502 45.2168967,23.2435646 C44.0576754,23.4226073 42.8761747,23.1087336 41.9611043,22.3786413 C41.6160052,22.1331315 41.401483,21.7452 41.377819,21.3238568 C41.3621213,21.0144429 41.4357158,20.707017 41.5899227,20.4378378 L41.6853694,20.2479766 L41.6535539,20.2796202 Z" id="Path"></path>
                <path d="M33.2436404,30.373908 C33.1132298,30.1589406 32.9484559,29.9665562 32.7558018,29.8043243 L28.6091737,26.5766837 C28.1531506,26.218057 27.6865224,25.8805259 27.2517097,25.5218992 C26.5576295,24.9430812 26.1671202,24.0808379 26.191191,23.1802776 C26.191191,22.7372681 26.2548221,22.3048064 26.2866377,21.8617969 C26.2866377,21.65084 26.2866377,21.450431 26.3502688,21.2078305 C26.5093466,21.3027611 26.6684244,21.3765961 26.7956867,21.4715267 C27.6228913,22.0411103 28.4394907,22.6317896 29.2560901,23.2119211 C30.5287125,24.1084879 31.8119402,25.0050548 33.0633523,25.9227173 C34.10521,26.6590312 34.976656,27.6084827 35.6192024,28.7073484 C35.9156797,29.2111293 36.1270552,29.7598718 36.2449084,30.3317166 C36.4077367,31.1520237 36.2644687,32.0032345 35.8419113,32.7260774 C35.4843385,33.404433 34.7969595,33.8482138 34.0284243,33.8968882 C33.6017388,33.9391868 33.1718821,33.9391868 32.7451966,33.8968882 C31.2286549,33.7386706 29.7333235,33.4222352 28.2379921,33.1479912 C26.7426607,32.8737473 25.4064071,32.6416947 23.9959172,32.4096421 C22.9353985,32.2197809 21.7900383,32.1143024 20.6870989,32.0193718 C20.241681,32.0193718 19.7962631,31.9560847 19.3508453,31.9455369 C18.6827185,31.9455369 18.0039865,31.9455369 17.3358597,31.9455369 C16.6362398,31.9588858 15.9440394,32.0908699 15.2890586,32.3358072 C14.7007405,32.5447499 14.2554815,33.0310957 14.1012776,33.6331921 L14.0376465,33.7808619 L13.9740154,33.7808619 C13.362638,33.0431708 13.141992,32.0595513 13.3801249,31.1333528 C13.5261692,30.6461642 13.7880845,30.2011449 14.1436984,29.8359679 C14.9200755,29.0261173 15.9139166,28.4550028 17.0070989,28.190504 C17.7597453,27.9924676 18.5309467,27.8722876 19.3084245,27.8318773 C19.7644476,27.8318773 20.2310758,27.8318773 20.6870989,27.8318773 C21.5147288,27.8352813 22.3408571,27.9022838 23.1581075,28.0322863 C25.0079437,28.3273699 26.8334327,28.7574776 28.6197788,29.3191234 L31.801335,30.2473338 C32.1710052,30.3505522 32.5522319,30.4072498 32.93609,30.4160993 L33.2436404,30.373908 Z" id="Path"></path>
                <path d="M71.8253113,25.1210811 C72.0268099,25.2371074 72.1964929,25.3214901 72.3661758,25.4375164 L77.2233516,28.8866618 C77.7748213,29.2874799 78.2838703,29.6672023 78.8671556,30.0891161 C79.8798828,30.8581453 80.7031691,31.8465186 81.2745331,32.9792257 C81.4891224,33.4032048 81.6324228,33.8592865 81.6987405,34.3293499 C81.8435998,35.1556592 81.6935464,36.0063394 81.2745331,36.7342586 C80.8675971,37.3885617 80.149751,37.7874246 79.3762046,37.7890431 C78.8579293,37.801007 78.3396423,37.7656999 77.8278472,37.6835646 C76.2900951,37.5042513 74.7841585,37.1772681 73.2570116,36.8924763 C72.0162047,36.6604237 70.7753978,36.4494668 69.5239857,36.2490577 C68.6119396,36.1119357 67.6998935,36.0064573 66.7878474,35.9115267 C66.2045621,35.8482396 65.6106716,35.8165961 65.0167812,35.7849525 C64.4228907,35.753309 63.7653691,35.7849525 63.1290578,35.7849525 C62.3803233,35.7896736 61.6366153,35.9070277 60.9231789,36.1330314 C60.2299073,36.3234279 59.6993468,36.8795338 59.5445046,37.5780862 C59.5505043,37.6235988 59.5505043,37.6696956 59.5445046,37.7152082 L59.5445046,37.7152082 C59.343621,37.465269 59.1793742,37.1882695 59.056666,36.8924763 C58.582535,35.8072606 58.8409969,34.543009 59.7035824,33.7281227 C60.4639518,32.9541767 61.4261273,32.4062913 62.4821414,32.1459459 C63.3183251,31.9304779 64.1750005,31.8032017 65.0379915,31.7662235 C66.6164524,31.6901463 68.1982845,31.8106226 69.7466946,32.1248503 C71.2388783,32.4229156 72.7148966,32.7960858 74.1690577,33.2429218 L77.4990864,34.2027757 C77.8812637,34.2923266 78.2730557,34.3348364 78.665657,34.3293499 L78.7611037,34.3293499 C78.6112182,34.0912319 78.4210579,33.8806885 78.1990288,33.707027 L73.055513,29.7093937 C72.510414,29.3085688 72.0940906,28.7589153 71.8571269,28.1272169 C71.6632241,27.5720966 71.608615,26.9782655 71.6980491,26.3973703 C71.6980491,26.0914828 71.751075,25.7750475 71.7828906,25.4586121 C71.7934957,25.3425858 71.8147061,25.2371074 71.8253113,25.1210811 Z" id="Path"></path>
                <path d="M21.1855426,12.115588 C21.9498794,12.1344142 22.5876903,12.7017664 22.6914792,13.4551644 C22.7941121,14.4408468 22.3413275,15.4023759 21.5143035,15.9550037 C21.0886307,16.2159993 20.5609586,16.2515134 20.1038136,16.0499343 C19.2953768,15.706005 18.8302172,14.8549138 18.9796637,13.9931045 C19.0699287,13.5914144 19.2763703,13.2247619 19.5735542,12.9383199 C19.8570929,12.610194 20.223031,12.3627015 20.6340729,12.2210665 C20.8050269,12.1372597 20.9955294,12.1008227 21.1855426,12.115588 Z" id="Path"></path>
                <path d="M68.1983373,17.7164938 C68.2140639,18.5501116 67.8177743,19.3384054 67.1378186,19.8260628 C66.5554519,20.2354159 65.7672918,20.196221 65.2288849,19.7311322 C64.8396111,19.4258125 64.581772,18.9845763 64.5077322,18.4970343 C64.4431111,18.0172395 64.5728189,17.5315678 64.8683085,17.1469102 C65.1228062,16.772262 65.4648836,16.4646092 65.8651961,16.2503433 C66.3778813,15.9061809 67.0493409,15.9061809 67.5620261,16.2503433 C68.0322312,16.5829621 68.2774722,17.1480319 68.1983373,17.7164938 L68.1983373,17.7164938 Z" id="Path"></path>
                <path d="M27.0926319,20.8175603 L30.443871,14.6154273 L30.1151102,14.5204967 C29.8493722,14.4577518 29.5873688,14.38028 29.3303264,14.2884441 C28.8784284,14.1477466 28.5985668,13.6987976 28.6728048,13.2336596 C28.6851168,12.6495939 28.8984889,12.0874013 29.2773004,11.640935 C29.4670685,11.4608725 29.7276837,11.374355 29.9881477,11.4049522 C30.2486117,11.4355493 30.4817902,11.5800735 30.6241592,11.7991527 C30.7196059,11.9890139 30.7938422,12.1894229 30.8680785,12.3792841 C30.9423148,12.5691454 31.0483667,12.9277721 31.1438134,13.2020161 C31.1852753,13.3673759 31.2977451,13.5062387 31.4513638,13.5817385 C31.6466652,13.6683182 31.7687087,13.8650433 31.7589142,14.0774872 C31.7612765,14.2658776 31.6537742,14.4385961 31.4831794,14.5204967 L31.0483667,14.7103579 C30.9522687,14.7488743 30.8810461,14.831518 30.8574733,14.9318627 C30.4998838,16.1697025 29.9564291,17.3467478 29.2454849,18.4231994 C28.6737265,19.2866206 27.9849702,20.0674863 27.1986838,20.7437253 L27.0926319,20.8175603 Z" id="Path"></path>
                <path d="M73.1191441,24.1295836 L76.4809885,17.9590942 L76.0885965,17.8536158 C75.8234669,17.769233 75.547732,17.7059459 75.2826023,17.6004675 C74.8414951,17.4175526 74.5957093,16.9464177 74.699317,16.4823959 C74.7500867,16.0569859 74.8910602,15.6471375 75.1129193,15.2799416 C75.2225395,15.0754179 75.4036012,14.9178456 75.6219683,14.8369321 C76.0376534,14.6817882 76.5028467,14.876113 76.682487,15.2799416 C76.8097493,15.5436377 76.8839856,15.8284295 76.9900374,16.1132213 C77.0960893,16.3980131 77.1066945,16.4507524 77.1597204,16.6300657 C77.2201232,16.7556481 77.3262784,16.8536878 77.4566657,16.9043097 C77.7193804,17.016004 77.8494352,17.3116648 77.7536109,17.5793718 C77.7079271,17.7002725 77.6166071,17.7986675 77.4990864,17.8536158 L77.1279049,18.0118335 C76.9899348,18.0416697 76.8821685,18.1488534 76.85217,18.2860774 C76.6231608,19.1331828 76.295729,19.9508761 75.8764928,20.7226297 C75.4255494,21.5927267 74.858331,22.3981505 74.190268,23.1169905 L73.3206427,23.9819138 C73.2652145,24.0333924 73.2048275,24.079321 73.1403545,24.1190358 L73.1191441,24.1295836 Z" id="Path"></path>
                <path d="M8.17297801,31.0384222 C7.71321986,31.0462866 7.28437358,30.8088798 7.04882817,30.4160993 C6.61197516,29.7948064 6.68334349,28.9518899 7.21851117,28.4120088 C7.44696894,28.1379143 7.74831148,27.9332321 8.08813651,27.8213294 C8.43313199,27.7050726 8.81180714,27.7427459 9.1268146,27.9246645 C9.44182206,28.1065831 9.66243531,28.4150022 9.73194052,28.7706355 C9.82923985,29.3112531 9.69038715,29.8674969 9.35015379,30.300073 C9.21498642,30.4766881 9.06220082,30.6392494 8.89413074,30.7852739 C8.69376683,30.9559232 8.43665115,31.0461792 8.17297801,31.0384222 Z" id="Path"></path>
                <path d="M51.8875595,33.0425128 C51.9309233,32.3643659 52.3353717,31.7609735 52.9480782,31.460336 C53.2654525,31.2632767 53.6557436,31.2205768 54.0085969,31.3443097 C54.4761154,31.4957835 54.8064526,31.911671 54.8464067,32.3990942 C54.9184917,33.0847034 54.6492308,33.7620926 54.1252539,34.2133236 C53.8418833,34.4836701 53.4473616,34.6060561 53.0597101,34.5438697 C52.6720586,34.4816834 52.3362306,34.242136 52.1526891,33.8968882 C51.9750511,33.6474633 51.8821606,33.3481252 51.8875595,33.0425128 L51.8875595,33.0425128 Z" id="Path"></path>
                <path d="M54.8782222,35.890431 C54.8832524,36.550743 54.5771241,37.1753032 54.0510176,37.5780862 C53.7781763,37.7950265 53.4271335,37.8897896 53.0814543,37.8398172 C52.735775,37.7898448 52.426382,37.5996072 52.2269254,37.3143901 C51.7209708,36.6856566 51.7664886,35.7802223 52.3329773,35.204821 C52.5852401,34.9079575 52.9276574,34.7006566 53.3086545,34.6141417 C53.698056,34.4961024 54.1209988,34.5790828 54.4361605,34.8353556 C54.7513223,35.0916284 54.9171456,35.4874015 54.8782222,35.890431 Z" id="Path"></path>
                <path d="M8.52294919,31.1122571 C8.90029641,31.1202964 9.25458846,31.2945124 9.49011962,31.5878437 C9.72565078,31.8811751 9.81811903,32.2633559 9.74254571,32.6311468 C9.66972984,33.2001506 9.37679858,33.718522 8.9259463,34.0762016 C8.67298151,34.286427 8.34630505,34.3878943 8.01801098,34.3582107 C7.68971692,34.3285272 7.38679266,34.1701329 7.17609042,33.9179839 C6.65222715,33.3658538 6.60734304,32.5176668 7.07003855,31.9138934 C7.32089582,31.5470978 7.69817963,31.2844271 8.13055726,31.1755442 C8.25781951,31.1439007 8.39568694,31.1333528 8.52294919,31.1122571 Z" id="Path"></path>
                <path d="M39.8188565,26.3235354 C39.7765781,26.114674 39.7765781,25.8995262 39.8188565,25.6906647 C39.9222463,25.3308501 40.1952375,25.043595 40.5506144,24.920672 C40.6465441,24.8828387 40.7460138,24.8545724 40.8475596,24.8362893 C40.9677171,24.7944845 41.0985837,24.7944845 41.2187412,24.8362893 C41.547502,25.0050548 41.886868,25.1527246 42.2050236,25.332038 C42.5061662,25.4920675 42.7114244,25.7865124 42.7564933,26.1231264 C42.8226661,26.4153057 42.7525032,26.7215779 42.5655999,26.9564061 C42.3169868,27.3077502 41.9329467,27.540748 41.5050812,27.5998247 C41.2649857,27.6118036 41.0262825,27.5570161 40.8157441,27.441607 C40.3421105,27.204232 39.9860276,26.7853359 39.8294617,26.281344 L39.8188565,26.3235354 Z" id="Path"></path>
                <path d="M39.8188565,26.3235354 C39.8089782,26.3615869 39.8089782,26.4015103 39.8188565,26.4395617 C39.7181213,27.0456899 39.2404988,27.5207299 38.6310755,27.6209204 C38.1139625,27.6929041 37.5962626,27.4933301 37.2630064,27.0935281 C37.115125,26.9203636 36.9903646,26.7289168 36.8918248,26.5239445 C36.7075356,26.1693563 36.7293466,25.7435693 36.9489152,25.4094457 C37.1684838,25.0753222 37.5518371,24.8845596 37.9523435,24.9101242 C38.5556431,24.9070103 39.1282617,25.1743372 39.511306,25.6379255 C39.6179047,25.8057329 39.7101407,25.9821507 39.7870409,26.1653178 L39.850672,26.3235354 L39.8188565,26.3235354 Z" id="Path"></path>
                <path d="M59.9793173,13.3813294 L60.1383951,13.001607 C60.2232366,12.8222936 60.3080781,12.6429803 60.4035247,12.4636669 C60.6409197,11.9342369 60.7076067,11.3446691 60.5944181,10.7760117 C60.5201818,10.2697151 60.3823144,9.72122717 60.2762625,9.24657414 C60.2387875,9.03754933 60.2175146,8.8259698 60.2126314,8.61370343 C60.2425778,8.30542003 60.4627896,8.04849142 60.7641011,7.97028488 C60.8595478,7.97028488 60.9019685,7.97028488 60.9549945,8.06521549 C61.1207475,8.2528357 61.2469657,8.47162663 61.326176,8.70863404 C61.4645711,9.09867569 61.5397455,9.50811902 61.548885,9.92163623 C61.5684934,10.3678111 61.5292743,10.8146189 61.4322279,11.2506647 C61.3362974,11.7133419 61.1681122,12.1582244 60.9337841,12.5691454 C60.7694847,12.8781639 60.5238968,13.1370066 60.2232366,13.3180424 L60.021738,13.412973 L59.9793173,13.3813294 Z" id="Path"></path>
                <path d="M14.4724592,9.43643535 L14.6739577,8.99342586 C14.80122,8.71918188 14.9284822,8.43439007 15.0345341,8.14959825 C15.135101,7.84740971 15.1676847,7.5269354 15.1299808,7.21084003 C15.0594446,6.49787284 14.9281759,5.79214886 14.7375889,5.101271 C14.7266275,4.99959992 14.7266275,4.89705458 14.7375889,4.79538349 C14.699697,4.40182881 14.9802158,4.04842621 15.3739001,3.99374726 C15.696457,4.33100862 15.8978059,4.76490578 15.9465802,5.22784514 C16.1746669,6.29459379 16.0442603,7.40632103 15.5753986,8.39219869 C15.4224369,8.81799984 15.1409341,9.18639553 14.7694044,9.4469832 L14.5148799,9.52081812 L14.4724592,9.43643535 Z" id="Path"></path>
                <path d="M63.8714209,15.2166545 L62.7366659,17.431702 C62.5775881,17.431702 62.5563777,17.3262235 62.5351674,17.2101972 C62.5351674,16.8726662 62.4185103,16.5351351 62.3654844,16.1554127 C62.344663,15.8477289 62.1459723,15.5801234 61.8564354,15.4698028 C61.6451886,15.3690623 61.503791,15.1641398 61.4852538,14.9318627 C61.488923,14.8230208 61.5301115,14.7187441 61.6019109,14.636523 C61.6659221,14.519553 61.7794437,14.4374291 61.9110479,14.4128867 C62.0426522,14.3883443 62.1783752,14.4239876 62.2806429,14.5099489 C62.4203201,14.5922491 62.5285137,14.718411 62.5881933,14.8685756 C62.6942452,15.1428196 62.7896918,15.4170636 62.8851385,15.7018554 C62.919241,15.7949733 62.9475746,15.8900822 62.96998,15.9866472 C63.1290578,15.7124032 63.2457149,15.4592549 63.3835823,15.2272023 C63.5165554,14.9509708 63.7361406,14.7251696 64.0092884,14.5837838 C64.2850232,14.4572096 64.3380492,14.4677575 64.5713633,14.6470709 C64.6931636,14.7369339 64.7477496,14.8914543 64.7092307,15.0373411 C64.7092307,15.248298 64.6031789,15.4592549 64.5395477,15.7124032 L63.8714209,15.2166545 Z" id="Path"></path>
                <path d="M19.0220845,11.7991527 L18.3645629,11.2823083 L17.240413,13.47626 C17.0601248,13.47626 17.0495197,13.3813294 17.0283093,13.275851 C16.9646782,12.9172243 16.9116522,12.5585975 16.8480211,12.2210665 C16.8272733,11.9581537 16.6589362,11.729473 16.4132084,11.6303871 C16.2512833,11.5574592 16.120013,11.430629 16.0420269,11.2717604 C15.9586158,11.1107995 15.9794607,10.9159166 16.0950528,10.7760117 C16.3919981,10.3751936 16.7525744,10.5228634 17.0177041,10.8709423 C17.1374717,11.076249 17.2301462,11.296047 17.293439,11.5249087 C17.3570701,11.7042221 17.410096,11.8940833 17.4737271,12.1261359 C17.5691738,11.9362747 17.6434101,11.7886048 17.7282516,11.640935 C17.8130931,11.4932652 18.0039865,11.1979255 18.1524591,10.9869686 C18.2753889,10.8307088 18.4469608,10.7194191 18.6402977,10.6705332 C18.7801599,10.6287133 18.9317495,10.6577438 19.0459983,10.7482278 C19.1602471,10.8387118 19.2226388,10.9791525 19.2129778,11.1240906 C19.178885,11.3563578 19.1147213,11.5832619 19.0220845,11.7991527 Z" id="Path"></path>
                <path d="M67.6362624,29.9308985 C66.8556457,29.9132289 66.0782636,29.8249664 65.3137264,29.6672023 C64.9620238,29.5783279 64.6331575,29.416581 64.3486544,29.1925493 C63.8971998,28.8253949 63.6785662,28.2455246 63.7759743,27.6736596 C63.8276452,27.2993723 63.95771,26.9400344 64.157761,26.6188751 C64.181857,26.5640195 64.2102238,26.5111194 64.2426025,26.4606574 L64.2426025,26.3973703 L63.7017379,26.8931191 C62.7578763,27.7685902 61.8140146,28.6440614 60.8595478,29.4984368 C60.2985264,29.9912302 59.6466083,30.3709522 58.9400089,30.6165084 C58.2648117,30.8742303 57.5393695,30.9752431 56.8189715,30.9118481 C55.7841808,30.8525387 54.8799652,30.1966078 54.5070407,29.2347407 C54.3903836,28.9815924 54.3267525,28.7073484 54.2313058,28.4436523 L54.1252539,28.053382 L53.4783375,28.6862527 C52.8235848,29.4232262 52.1146159,30.1107333 51.3573001,30.7430825 C50.4832204,31.3961597 49.4275496,31.7645677 48.3348218,31.7978671 C47.3945873,31.851846 46.5131928,31.3408254 46.0971273,30.5004821 C45.6366911,29.6698867 45.6366911,28.6624727 46.0971273,27.8318773 C46.5307404,27.009976 47.0123318,26.2140116 47.5394327,25.4480643 C48.9181071,23.3384953 50.2437554,21.2289262 51.4527468,19.1193572 C52.6514051,17.0268143 53.7140984,14.8600721 54.6343029,12.6324324 C54.8251963,12.1788751 55.0054845,11.7147699 55.1645623,11.2506647 C55.2316369,10.9669107 55.2388589,10.6724104 55.1857727,10.3857414 C55.1723173,9.95628092 54.9459557,9.56130252 54.581277,9.3309569 C54.3048152,9.156415 53.9997107,9.03146304 53.6798361,8.96178232 L53.3404701,8.86685172 L53.4571272,8.80356465 C54.0828332,8.56096421 54.6979341,8.30781592 55.3236401,8.08631118 C55.6679393,7.96516422 56.0230451,7.87686779 56.3841588,7.82261505 C57.1181967,7.71114005 57.841172,8.0813102 58.1764354,8.74027757 C58.3546772,9.06695686 58.4663954,9.42538985 58.5051962,9.79506209 C58.5421158,10.3787581 58.4956986,10.9647129 58.3673288,11.5354565 C58.1032917,12.8457561 57.6571262,14.1131147 57.0416804,15.3010373 C56.3417381,16.6617093 55.6099801,18.0223813 54.867617,19.3725055 C54.1252539,20.7226297 53.2344182,22.3259021 52.4178188,23.7920526 L50.7528044,26.7981885 C50.596515,27.0565631 50.4819976,27.3377494 50.4134384,27.6314682 C50.32676,28.0267918 50.4750895,28.4365903 50.7952252,28.6862527 C51.0876612,28.9367546 51.4938377,29.009471 51.8557439,28.876114 C52.0563104,28.8110039 52.2381817,28.6988533 52.3860033,28.5491308 C53.0011041,27.9268079 53.6268101,27.304485 54.241911,26.6716143 C55.4019745,25.4992991 56.4658867,24.236562 57.4234672,22.8954858 C58.0491732,21.9883711 58.7066948,21.1128999 59.396032,20.2585245 C59.7367465,19.7621949 60.2325071,19.391458 60.8065219,19.20374 C61.1933261,19.0776017 61.6068486,19.0557634 62.004908,19.1404529 C62.396979,19.173974 62.7503608,19.388967 62.9589244,19.7208644 C63.167488,20.0527618 63.206938,20.4629013 63.0654267,20.8281081 C62.909187,21.3097204 62.6803353,21.7649489 62.3866947,22.1782323 L60.3186832,25.6590212 L59.2581645,27.3466764 C59.0296258,27.7530271 59.0296258,28.2482585 59.2581645,28.6546092 C59.3221111,28.7949399 59.4414531,28.9028009 59.5880055,28.9527187 C59.7345579,29.0026365 59.8953267,28.9901852 60.0323432,28.9183053 C60.2049311,28.8176718 60.3650964,28.6973123 60.5095766,28.5596786 L62.4821414,26.7559971 C62.8745333,26.3868225 63.2669253,26.0176479 63.648712,25.6379255 C64.4936522,24.7780346 65.2868826,23.8693432 66.0242739,22.9165814 C66.7136111,22.0411103 67.3605275,21.1339956 67.9756284,20.2057852 C68.2531518,19.8038048 68.5731291,19.4325164 68.9300952,19.0982615 C69.1429125,18.8753945 69.3773674,18.6740054 69.6300376,18.4970343 C70.1645317,18.1463304 70.8226608,18.0353214 71.4435246,18.1911468 C71.8172135,18.2676385 72.137909,18.5042678 72.3198844,18.8377801 C72.5018598,19.1712925 72.5265614,19.567684 72.3873862,19.9209934 C72.2569077,20.2561231 72.0935034,20.5776316 71.8995476,20.8808473 C71.3586831,21.8196056 70.732977,22.7161724 70.1284814,23.6127392 C69.2411175,24.9220434 68.5281632,26.340242 68.0074439,27.8318773 C67.8754923,28.2370255 67.765744,28.6489972 67.6786831,29.0659752 C67.6570936,29.2269961 67.6570936,29.3901551 67.6786831,29.551176 C67.6468676,29.6777502 67.6362624,29.7937765 67.6362624,29.9308985 Z" id="Path"></path>
                <path d="M22.1400095,25.9965522 C21.3519952,25.9847076 20.5670247,25.8963901 19.7962631,25.7328561 C19.368264,25.6335237 18.9780299,25.4138308 18.6721133,25.0999854 C18.2570224,24.6283073 18.1349152,23.9684453 18.3539577,23.3806866 C18.4400678,23.1468453 18.539203,22.9179544 18.6509029,22.6950767 C18.6917792,22.6191264 18.7204085,22.5372621 18.7357444,22.4524763 L18.3327473,22.8321987 C17.3570701,23.7287655 16.3919981,24.646428 15.3951105,25.532447 C14.7600938,26.1026602 14.0071335,26.5275107 13.1892315,26.7770928 C12.4545698,27.0192259 11.6704658,27.073635 10.9091163,26.9353104 C10.1425585,26.7708151 9.49170422,26.2707777 9.13805004,25.5746384 C8.96572465,25.2385891 8.83060019,24.8849211 8.73505293,24.5198539 C8.70244057,24.3983822 8.66350236,24.2786785 8.61839587,24.1612272 C8.34266101,24.4038276 8.07753133,24.6358802 7.82300684,24.8890285 C7.15694153,25.6344656 6.42195617,26.3160365 5.62773309,26.9247626 C4.77928304,27.5237327 3.77241055,27.8612104 2.732517,27.8951644 C1.87005301,27.950262 1.04982516,27.5178917 0.611479571,26.7770928 C0.0375962679,25.9402654 -0.0236311234,24.8563106 0.452401764,23.9608181 C0.782970462,23.2874438 1.16221739,22.6388071 1.58715679,22.0200146 C2.6476755,20.3956465 3.70819422,18.7607305 4.76871294,17.0730752 C5.43683973,15.9128123 6.09436133,14.7420015 6.73067256,13.5606428 C7.71330801,11.70291 8.58790718,9.79060418 9.35015379,7.83316289 C9.49108278,7.49608119 9.58389428,7.141044 9.62588865,6.77837838 C9.74387864,6.1123854 9.36365184,5.45837216 8.72444774,5.22784514 C8.50173881,5.13291454 8.27902988,5.08017531 8.05632095,4.99579255 L7.81240165,4.92195763 C7.83642832,4.90386245 7.85783922,4.88256732 7.87603277,4.85867056 L9.89101833,4.10977356 C10.1355179,4.0233109 10.3876019,3.95974783 10.6439866,3.91991234 C11.2098307,3.78174846 11.8078468,3.9274899 12.2453699,4.31018262 C12.5041012,4.54371488 12.7008219,4.83720042 12.81805,5.16455807 C12.9938098,5.71303348 13.0338293,6.29560653 12.934707,6.86276114 C12.6929364,8.46824259 12.183994,10.0224615 11.4287705,11.4616216 C10.8879059,12.5796932 10.2834103,13.7399562 9.68951977,14.7947407 C9.09562929,15.8495252 8.32145063,17.2734843 7.63211347,18.5075822 C6.82611924,19.9737327 6.00951983,21.4293353 5.19292042,22.8954858 C5.03053077,23.1762661 4.91923707,23.483347 4.86415962,23.8026004 C4.79673993,24.3024413 5.09450169,24.7798203 5.57470716,24.9417677 C6.03185564,25.0937357 6.53608655,24.9611064 6.8579348,24.6042367 L8.75626331,22.673981 C9.58406855,21.8327216 10.3630429,20.9452665 11.0894045,20.015924 C11.5878483,19.3619576 12.0438713,18.6657999 12.5423151,18.0118335 C13.0407589,17.3578671 13.6028338,16.6722571 14.1012776,16.0288386 C14.5857651,15.4639951 15.3072017,15.1559227 16.0526321,15.1955588 C16.4347312,15.1828156 16.809475,15.3020852 17.1131508,15.5330898 C17.4155899,15.7972795 17.5731756,16.1891137 17.5373583,16.5878744 C17.4927539,16.9869166 17.3625598,17.37179 17.1555715,17.7164938 C16.8374159,18.2860774 16.5086551,18.8556611 16.1798943,19.4252447 C15.3951105,20.7331775 14.6209318,22.0516581 13.8255428,23.3490431 C13.5956602,23.7454216 13.5681233,24.2266688 13.7513065,24.646428 C13.8090475,24.8160358 13.9436212,24.9487631 14.1146296,25.0047663 C14.285638,25.0607694 14.4731707,25.0335281 14.6209318,24.9312199 C14.8047309,24.8123433 14.9753643,24.6744533 15.1299808,24.5198539 L16.901047,22.9165814 C17.632805,22.2415194 18.3433525,21.5453616 19.0220845,20.8070124 C20.2782879,19.3948125 21.4335427,17.8968723 22.4793755,16.3241782 C22.7166792,15.994881 22.9752856,15.6812985 23.2535541,15.38542 C23.3914216,15.2166545 23.5611046,15.0795325 23.7095772,14.9213148 C24.1223931,14.4703396 24.698433,14.2009509 25.3109605,14.1724178 C25.5461666,14.1453161 25.7844663,14.1668626 26.0109028,14.2357049 C26.3994424,14.3279177 26.7254615,14.5894664 26.8983152,14.9476311 C27.0711689,15.3057959 27.0724265,15.7223871 26.9017385,16.0815778 C26.7474477,16.4476836 26.5629966,16.8004794 26.3502688,17.1363623 C25.8094042,17.9801899 25.2897501,18.8134697 24.6958596,19.6572973 C23.7628913,21.0297679 23.0175329,22.5195185 22.4793755,24.0873923 C22.394534,24.3721841 22.2990873,24.6675237 22.2354562,24.9523156 C22.1932272,25.1855426 22.171933,25.4220425 22.1718251,25.6590212 C22.1400095,25.7434039 22.1400095,25.8594302 22.1400095,25.9965522 Z" id="Path"></path>
                <path d="M41.7808161,19.6256538 C41.5262916,19.8577064 41.2717671,20.1003068 41.0066374,20.3112637 C40.1264069,21.0496129 39.2779919,21.8301534 38.3341303,22.4946676 C36.807985,23.6250859 34.7167598,23.6250859 33.1906145,22.4946676 C32.4760666,21.9776314 32.1944134,21.0510464 32.5012773,20.2268809 C32.6928884,19.5937536 33.0390002,19.017604 33.5087701,18.5497736 C34.3822213,17.6387577 35.183534,16.6619281 35.9055424,15.6280205 C36.7539449,14.4363492 37.5261141,13.1927623 38.2174732,11.9046311 C38.6522859,11.092447 39.0764934,10.2697151 39.4900957,9.4469832 C40.0895641,8.22402785 40.6240935,6.97062676 41.0914789,5.69195033 C41.2293464,5.32277575 41.377819,4.96414901 41.5050812,4.63716581 C41.6305072,4.22648846 41.6983138,3.80055179 41.7065798,3.3714244 C41.7065798,3.06553689 41.7065798,2.75964938 41.7065798,2.44321402 C41.7170717,2.3133332 41.7170717,2.18282458 41.7065798,2.05294375 C41.6783687,1.80400367 41.5028291,1.5961579 41.2611619,1.5255515 C41.1016735,1.46664311 40.9387664,1.41733076 40.7733233,1.37788167 C40.6120569,1.33561037 40.4630871,1.25610756 40.3385106,1.14582907 C40.5882175,0.889672429 40.8783929,0.675889901 41.1975308,0.512958364 C42.0245752,0.103913125 42.9510275,-0.0642867867 43.870038,0.0277574872 C44.5736982,0.0810272251 45.1860982,0.526602261 45.4502109,1.17747261 C45.6554111,1.67458089 45.7213786,2.21769286 45.6411042,2.74910153 C45.5575503,3.46710963 45.3975757,4.17426377 45.1638708,4.85867056 C44.8726196,5.79544374 44.5183128,6.71166042 44.1033521,7.6011103 C43.647329,8.5820599 43.1807008,9.55246165 42.6928622,10.5228634 C41.9858497,11.9292428 41.2152061,13.3356221 40.3809314,14.7420015 C39.5007009,16.2397955 38.5886548,17.7059459 37.697819,19.1931921 C37.4645049,19.5940102 37.2524012,19.9948283 37.0402974,20.4061943 C36.9184367,20.6397036 36.8994731,20.9130395 36.9879314,21.160983 C37.0763896,21.4089265 37.264336,21.6092397 37.5069257,21.7141271 C37.663158,21.8091585 37.8597424,21.8091585 38.0159747,21.7141271 L38.5144185,21.313309 C39.5749372,20.42729 40.5400092,19.4990796 41.494476,18.5286779 C42.9728283,17.009841 44.3010437,15.3532505 45.460816,13.5817385 C45.776439,13.0968801 46.1311097,12.6383012 46.5213348,12.2105186 L46.9561474,11.7569613 C47.4067323,11.3075932 48.0260222,11.0665726 48.6635826,11.092447 C48.8258203,11.0769118 48.9891834,11.0769118 49.1514212,11.092447 C49.4661163,11.145435 49.7242842,11.3696009 49.819548,11.6725785 C49.8893963,11.8904802 49.9181597,12.1193431 49.9043895,12.3476406 C49.894137,12.6693513 49.8622502,12.990019 49.8089428,13.3074945 C49.75583,13.5954361 49.6278617,13.8645347 49.4377612,14.0880351 C48.9817382,14.7103579 48.5363203,15.3326808 48.1333232,16.0077429 C47.6438663,16.8459106 47.197865,17.7084464 46.7970696,18.5919649 C46.5425451,19.1404529 46.309231,19.6994887 46.0547065,20.2479766 C45.8655222,20.6963314 45.7233666,21.1629083 45.630499,21.6402922 C45.5774731,21.8934405 45.513842,22.1571366 45.460816,22.4102849 C45.4552245,22.493522 45.3856142,22.5581403 45.3017382,22.5579547 C44.145837,22.7365875 42.9677551,22.4225993 42.056551,21.6930314 C41.7188981,21.4632114 41.5013202,21.0961017 41.4626605,20.6909861 C41.4557536,20.3811363 41.5326707,20.0751313 41.6853694,19.8049671 L41.7808161,19.6151059 L41.7808161,19.6256538 Z" id="Path"></path>
                <path d="M33.3709027,29.7199416 C33.2371781,29.5073687 33.0728143,29.3154633 32.8830641,29.1503579 L28.7364359,25.9227173 C28.2804129,25.5640906 27.8137846,25.2265595 27.3789719,24.8679328 C26.6810138,24.2920435 26.2896073,23.4278195 26.3184532,22.5263112 C26.3184532,22.0833017 26.3820844,21.65084 26.4138999,21.2078305 C26.4138999,21.0074215 26.4138999,20.7964646 26.4669259,20.5538641 C26.6366088,20.6487947 26.7850815,20.7226297 26.9229489,20.8175603 C27.7501535,21.3871439 28.5667529,21.9778232 29.3833523,22.5579547 C30.6559748,23.4545215 31.9392024,24.3510884 33.1906145,25.2687509 C34.2324722,26.0050648 35.1039182,26.9545163 35.7464646,28.053382 C36.042942,28.5571629 36.2543174,29.1059054 36.3721707,29.6777502 C36.5499468,30.5009463 36.4178742,31.3604063 36.0009891,32.0932067 C35.6418365,32.7701286 34.9553639,33.2133243 34.1875021,33.2640175 C33.7608167,33.3063161 33.3309599,33.3063161 32.9042745,33.2640175 C31.3771275,33.1163477 29.8924013,32.7893645 28.3864647,32.5151205 C26.8805281,32.2408766 25.5654849,32.008824 24.1443899,31.7767714 C23.0838711,31.5869102 21.9491161,31.4814317 20.8461767,31.3865011 C20.4007588,31.3865011 19.9553409,31.323214 19.5099231,31.3126662 C18.8417963,31.3126662 18.1630643,31.3126662 17.4949375,31.3126662 C16.7953176,31.3260151 16.1031172,31.4579992 15.4481364,31.7029364 C14.8599373,31.9152743 14.4127191,32.3994372 14.2497503,33.0003214 C14.2532976,33.0670778 14.2532976,33.133974 14.2497503,33.2007305 C14.2497503,33.2007305 14.2497503,33.2007305 14.2497503,33.2007305 L14.1861191,33.2007305 C13.5784532,32.461174 13.3617892,31.4777447 13.6028338,30.5532213 C13.7488782,30.0660328 14.0107935,29.6210134 14.3664073,29.2558364 C15.1380983,28.4627328 16.1198388,27.9032042 17.1979923,27.6420161 C17.9506387,27.4439797 18.72184,27.3237996 19.4993179,27.2833893 C19.9553409,27.2833893 20.4219692,27.2833893 20.8779922,27.2833893 C21.7056222,27.2867934 22.5317505,27.3537958 23.3490008,27.4837984 C25.1483768,27.738261 26.9274132,28.1189325 28.6728048,28.6229657 L31.8543609,29.5617239 C32.2240311,29.6649423 32.6052578,29.7216399 32.9891159,29.7304894 L33.3709027,29.7199416 Z" id="Path"></path>
                <path d="M71.9525736,24.4671147 C72.134828,24.5631936 72.3118298,24.6688204 72.4828329,24.78355 L77.3506138,28.2326954 C77.9020835,28.6335135 78.4111325,29.0132359 78.9944178,29.4351497 C80.0013473,30.2101599 80.8234445,31.1971057 81.4017953,32.3252593 C81.6274228,32.7472946 81.7814993,33.2034611 81.8578184,33.6753835 C81.9985798,34.5029194 81.8448159,35.3533735 81.4230057,36.0802922 C81.025521,36.7391055 80.3077685,37.1401569 79.5352824,37.1350767 C79.0170071,37.1470406 78.4987201,37.1117335 77.986925,37.0295982 C76.4491729,36.8502849 74.9432363,36.5233017 73.4160894,36.2385099 C72.1752825,36.0064573 70.9238704,35.7955004 69.6724583,35.5950913 C68.7710174,35.4579693 67.8589713,35.3524909 66.9469252,35.2575603 C66.3636399,35.1942732 65.7697494,35.1626297 65.175859,35.1309861 C64.5819685,35.0993426 63.9138417,35.1309861 63.2881356,35.1309861 C62.5394011,35.1357072 61.7956931,35.2530613 61.0822567,35.479065 C60.380603,35.6686448 59.8468682,36.2362448 59.7035824,36.9452155 C59.7035824,36.9452155 59.7035824,37.0295982 59.7035824,37.0717896 L59.7035824,37.0717896 C59.4989439,36.8244448 59.3343523,36.5468638 59.2157438,36.2490577 C58.7350425,35.1645372 58.9942991,33.8963985 59.8626602,33.0847042 C60.6089608,32.3024646 61.5603918,31.7434613 62.6094037,31.4708839 C63.4491796,31.2553737 64.3093747,31.1281027 65.175859,31.0911614 C66.7543151,31.0154152 68.3361059,31.1358884 69.8845621,31.4497882 C71.3798934,31.73458 72.8434093,32.1353981 74.3069251,32.5678598 L77.6263487,33.5277137 C78.0086332,33.6166415 78.4003482,33.659143 78.7929193,33.6542878 L78.8989711,33.6542878 C78.7490857,33.4161698 78.5589253,33.2056264 78.3368962,33.0319649 L73.1933804,29.0343316 C72.6227351,28.6473167 72.1857898,28.094881 71.9419684,27.4521549 C71.7657282,26.9001442 71.7257149,26.314043 71.8253113,25.7434039 C71.8253113,25.4375164 71.8253113,25.1210811 71.9101528,24.8046457 C71.913312,24.6910377 71.9275185,24.5780005 71.9525736,24.4671147 L71.9525736,24.4671147 Z" id="Path"></path>
                <path d="M21.3128049,11.4616216 C22.0771416,11.4804478 22.7149525,12.0478 22.8187415,12.801198 C22.9215441,13.7894172 22.4638823,14.7526259 21.6309605,15.3010373 C21.2091516,15.5619781 20.6845918,15.5975501 20.2310758,15.3959679 C19.4326323,15.0488206 18.9768523,14.2032127 19.1281363,13.3496859 C19.2154357,12.9492085 19.4181175,12.5826888 19.7114216,12.2949014 C19.9982025,11.9704062 20.3631015,11.7236166 20.7719403,11.5776479 C20.9387298,11.4920534 21.1253703,11.4520152 21.3128049,11.4616216 Z" id="Path"></path>
                <path d="M68.3255995,17.0625274 C68.3324113,17.894115 67.9380546,18.6785638 67.2650808,19.1720964 C66.6827141,19.5814495 65.894554,19.5422546 65.3561471,19.0771658 C64.9668734,18.7718461 64.7090343,18.3306099 64.6349944,17.8430679 C64.5703733,17.3632731 64.7000812,16.8776014 64.9955708,16.4929438 C65.2474087,16.1160081 65.5901243,15.8077814 65.9924584,15.5963769 C66.516693,15.2708512 67.1865126,15.2916699 67.6892883,15.6491161 C68.1379632,15.9750337 68.3799664,16.5125851 68.3255995,17.0625274 Z" id="Path"></path>
                <path d="M27.209289,20.1635939 C28.3334388,18.0540248 29.4469834,16.0288386 30.5711333,13.9614609 L30.2423725,13.8665303 C29.9762474,13.8052342 29.7141593,13.7277374 29.4575886,13.6344777 C29.0072317,13.4904712 28.7256236,13.0458911 28.7894618,12.5796932 C28.8056024,11.9944994 29.0226687,11.432434 29.4045627,10.9869686 C29.5943308,10.8069061 29.8549459,10.7203886 30.1154099,10.7509858 C30.375874,10.7815829 30.6090524,10.9261071 30.7514215,11.1451863 C30.843609,11.3374587 30.9250396,11.5346527 30.9953408,11.7358656 C31.0907874,11.9995617 31.1756289,12.2738057 31.2710756,12.5480497 C31.3125375,12.7134095 31.4250074,12.8522723 31.5786261,12.9277721 C31.7763889,13.0101628 31.8968813,13.2113243 31.8755713,13.4235208 C31.8899114,13.6150214 31.7785713,13.793906 31.5998364,13.8665303 L31.1756289,14.0563915 C31.0795309,14.0949079 31.0083084,14.1775516 30.9847356,14.2778963 C30.627146,15.5157361 30.0836913,16.6927814 29.3727471,17.769233 C28.8003848,18.6353561 28.1077217,19.4166032 27.3153408,20.0897589 L27.209289,20.1635939 Z" id="Path"></path>
                <path d="M73.2145908,23.4756172 L76.5764351,17.2840321 L76.1840432,17.1785537 C75.9083084,17.0941709 75.6325735,17.0308839 75.378049,16.9254054 C74.9649267,16.7380815 74.7363209,16.292087 74.8265793,15.8495252 C74.872334,15.422995 75.0136685,15.0120971 75.2401816,14.6470709 C75.3465006,14.4399649 75.5287283,14.2813778 75.7492306,14.2040614 C76.1649156,14.0489175 76.6301089,14.2432423 76.8097493,14.6470709 C76.9264063,14.910767 77.0112478,15.1955588 77.1066945,15.4803506 C77.2021412,15.7651424 77.2339568,15.8284295 77.2869827,15.997195 C77.3318032,16.1381665 77.4309475,16.2557378 77.5627176,16.3241782 C77.8295404,16.4317127 77.9613469,16.7313558 77.8596628,16.9992403 C77.8219196,17.1213601 77.7330057,17.2213279 77.6157435,17.2734843 L77.2445619,17.431702 C77.1065919,17.4615382 76.9988255,17.5687219 76.9688271,17.7059459 C76.7412156,18.5267779 76.4210266,19.319384 76.0143602,20.0686633 C75.552947,20.9551096 74.9673557,21.7719253 74.2751095,22.4946676 C73.9993747,22.7900073 73.7024294,23.0747991 73.4160894,23.3595909 L73.2358012,23.5072608 L73.2145908,23.4756172 Z" id="Path"></path>
                <path d="M8.30024026,30.3844558 C7.83992511,30.394544 7.41002901,30.156556 7.17609042,29.7621329 C6.7392374,29.14084 6.81060573,28.2979235 7.34577341,27.7580424 C7.57423119,27.4839479 7.87557373,27.2792657 8.21539876,27.167363 C8.55905466,27.0510506 8.93655688,27.0888888 9.24996857,27.2710612 C9.56338025,27.4532335 9.78181286,27.7617858 9.84859758,28.1166691 C9.9490578,28.6606931 9.81003937,29.2214417 9.46681084,29.6566545 C9.33453967,29.832529 9.18142667,29.9918972 9.0107878,30.1313075 C8.81645137,30.3050518 8.56129408,30.3959572 8.30024026,30.3844558 L8.30024026,30.3844558 Z" id="Path"></path>
                <path d="M52.0042165,32.3885464 C52.0475803,31.7103995 52.4520288,31.1070071 53.0647352,30.8063696 C53.3821095,30.6093103 53.7724007,30.5666104 54.1252539,30.6903433 C54.5927724,30.8418171 54.9231097,31.2577046 54.9630637,31.7451278 C55.0167487,32.4254786 54.7362096,33.0896301 54.2100954,33.5277137 C53.9234256,33.7930155 53.5291758,33.9109387 53.1429274,33.8469121 C52.7566789,33.7828854 52.4221932,33.5441629 52.2375306,33.2007305 C52.0795655,32.9594276 51.998269,32.6764282 52.0042165,32.3885464 L52.0042165,32.3885464 Z" id="Path"></path>
                <path d="M55.0054845,35.2681081 C55.0105147,35.9284202 54.7043863,36.5529804 54.1782799,36.9557633 C53.9054385,37.1727037 53.5543958,37.2674667 53.2087165,37.2174943 C52.8630373,37.1675219 52.5536442,36.9772843 52.3541877,36.6920672 C51.848233,36.0633338 51.8937508,35.1578994 52.4602396,34.5824982 C52.7087267,34.2863937 53.0475618,34.0790072 53.4253116,33.9918188 C53.8156673,33.8749926 54.23886,33.9580758 54.5553042,34.2136645 C54.8717484,34.4692532 55.0403451,34.8641521 55.0054845,35.2681081 L55.0054845,35.2681081 Z" id="Path"></path>
                <path d="M8.66081662,30.4582907 C9.0376874,30.4656608 9.39151649,30.6401963 9.62548651,30.9341394 C9.85945652,31.2280825 9.94907064,31.6106571 9.86980796,31.9771804 C9.80990275,32.5478367 9.51887998,33.069607 9.06381373,33.4222352 C8.81084895,33.6324606 8.48417248,33.7339279 8.15587842,33.7042443 C7.82758435,33.6745608 7.52466009,33.5161665 7.31395785,33.2640175 C6.79009459,32.7118874 6.74521048,31.8637004 7.20790598,31.259927 C7.45731825,30.8917165 7.835205,30.628626 8.2684247,30.5215778 C8.38508175,30.4899343 8.52294919,30.4793864 8.66081662,30.4582907 Z" id="Path"></path>
                <path d="M39.9461187,25.669569 C39.9038403,25.4607076 39.9038403,25.2455598 39.9461187,25.0366983 C40.0578309,24.678071 40.3329073,24.3927567 40.6884818,24.2667056 C40.7844115,24.2288723 40.8838812,24.200606 40.9854271,24.1823229 C41.105723,24.1413369 41.2363127,24.1413369 41.3566086,24.1823229 C41.6853694,24.3510884 42.0247354,24.4987582 42.342891,24.6780716 C42.6383496,24.8443715 42.8413945,25.1356412 42.8943608,25.46916 C42.9517858,25.7612667 42.8824547,26.0639078 42.7034674,26.3024397 C42.4548543,26.6537838 42.0708141,26.8867816 41.6429487,26.9458583 C41.4028532,26.9578372 41.16415,26.9030497 40.9536115,26.7876406 C40.4776137,26.5532576 40.1205355,26.1331906 39.9673291,25.6273776 L39.9461187,25.669569 Z" id="Path"></path>
                <path d="M39.9461187,25.669569 C39.917902,25.7025642 39.8995338,25.7427556 39.8930928,25.7855953 C39.7893518,26.3901826 39.3131859,26.863774 38.7053118,26.966954 C38.1881988,27.0389377 37.6704989,26.8393637 37.3372427,26.4395617 C37.1858671,26.2690084 37.0607774,26.0770565 36.9660611,25.8699781 C36.7746969,25.4181109 36.8704421,24.8964299 37.2099804,24.5409496 C37.4435214,24.3449883 37.7425114,24.2433544 38.0477902,24.2561578 C38.6483993,24.2516511 39.2183514,24.5195556 39.5961475,24.9839591 C39.7103238,25.1490409 39.8063223,25.3258546 39.8824876,25.5113514 L39.9461187,25.669569 L39.9461187,25.669569 Z" id="Path"></path>
                <path d="M60.0959743,12.6851717 C60.1596054,12.5585975 60.2020262,12.4320234 60.2656573,12.3054492 L60.5201818,11.7675091 C60.766834,11.2443719 60.8339021,10.6551407 60.7110752,10.0904018 C60.6368389,9.57355734 60.4989714,9.03561724 60.4035247,8.55041636 C60.3660498,8.34139155 60.3447768,8.12981202 60.3398936,7.91754565 C60.3667768,7.60797926 60.5882932,7.34952849 60.8913633,7.2741271 C60.9762048,7.2741271 61.0292308,7.2741271 61.0716515,7.36905771 C61.2407337,7.55609669 61.3705368,7.77485156 61.4534383,8.01247626 C61.5882237,8.4031016 61.6598156,8.81252942 61.665542,9.22547845 C61.6815308,9.67855183 61.6423606,10.1318855 61.548885,10.5756026 C61.4529545,11.0382798 61.2847693,11.4831623 61.0504412,11.8940833 C60.8832138,12.2010053 60.6382799,12.4591587 60.3398936,12.6429803 L60.1277899,12.7379109 L60.0959743,12.6851717 Z" id="Path"></path>
                <path d="M14.5997214,8.78246896 L14.80122,8.33945946 C14.917877,8.06521549 15.0557445,7.78042367 15.1617963,7.49563185 C15.2623632,7.19344331 15.2949469,6.872969 15.257243,6.55687363 C15.1760828,5.84544113 15.0449652,5.14052961 14.8648511,4.4473046 C14.858994,4.34542531 14.858994,4.24329639 14.8648511,4.14141709 C14.8382822,3.74760588 15.1194471,3.39919617 15.5117675,3.33978086 C15.8397212,3.66430621 16.0520037,4.08657567 16.1162632,4.54223521 C16.3388793,5.6092314 16.2086769,6.71921768 15.7450816,7.70658875 C15.5944802,8.13662851 15.3080112,8.50665457 14.9284822,8.76137327 C14.8505987,8.80979136 14.7690462,8.85211039 14.6845629,8.88794741 L14.5997214,8.78246896 Z" id="Path"></path>
                <path d="M63.988078,14.5626881 L62.853323,16.7777356 C62.7048504,16.7777356 62.6730348,16.6722571 62.6624296,16.5562308 C62.6624296,16.2186998 62.5351674,15.8811687 62.4927466,15.5014463 C62.4693873,15.1946946 62.2715921,14.9282953 61.9836976,14.8158364 C61.7724509,14.7150959 61.6310533,14.5101734 61.6125161,14.2778963 C61.6161852,14.1690544 61.6573738,14.0647777 61.7291731,13.9825566 C61.7908408,13.8660382 61.9025231,13.7838109 62.0325761,13.7591729 C62.1626292,13.7345348 62.2968836,13.7701703 62.3972999,13.8559825 C62.5426065,13.9344037 62.6553142,14.0614485 62.7154555,14.2146092 C62.8215074,14.4888532 62.9169541,14.7630972 63.0124008,15.047889 C63.0465033,15.1410069 63.0748369,15.2361158 63.0972423,15.3326808 C63.2457149,15.0584368 63.3729771,14.8158364 63.5108446,14.5732359 C63.6438177,14.2970044 63.8634029,14.0712032 64.1365506,13.9298174 C64.4122855,13.8032432 64.4653114,13.8137911 64.6880204,13.9931045 C64.8163428,14.0782208 64.8760216,14.2350906 64.836493,14.3833747 C64.836493,14.5943316 64.7304411,14.8052885 64.6562048,15.0584368 L63.988078,14.5626881 Z" id="Path"></path>
                <path d="M19.1281363,11.1451863 L18.4706147,10.6283419 L17.3358597,12.8222936 C17.1661767,12.8222936 17.1555715,12.727363 17.1343612,12.6218846 C17.07073,12.2632579 17.0070989,11.9046311 16.954073,11.5671001 C16.9333252,11.3041873 16.7649881,11.0755066 16.5192603,10.9764207 C16.3551851,10.9066678 16.2229362,10.7788921 16.1480788,10.617794 C16.0433967,10.4689441 16.0433967,10.2708952 16.1480788,10.1220453 C16.4344188,9.72122717 16.8056004,9.86889701 17.07073,10.2169759 C17.1904977,10.4222826 17.2831721,10.6420806 17.3464649,10.8709423 C17.410096,11.0502557 17.4525168,11.2401169 17.5267531,11.4721695 C17.6221998,11.2823083 17.6964361,11.1346384 17.7812776,10.9869686 C17.8661191,10.8392988 18.0464073,10.5439591 18.2054851,10.3330022 C18.3284148,10.1767424 18.4999867,10.0654527 18.6933237,10.0165668 C18.8331858,9.97474691 18.9847755,10.0037774 19.0990242,10.0942614 C19.213273,10.1847454 19.2756648,10.3251861 19.2660038,10.4701242 C19.2489834,10.7000447 19.2026565,10.9268822 19.1281363,11.1451863 Z" id="Path"></path>
            </g>
        </g>
    </g>
</svg>